<svg height="100" width="100" xmlns="http://www.w3.org/2000/svg" xmlns:xlink="http://www.w3.org/1999/xlink"><radialGradient id="a" cx="49.999997" cy="50.000003" gradientUnits="userSpaceOnUse" r="50"><stop offset="0" stop-color="#22535b" stop-opacity=".1"/><stop offset=".75" stop-color="#22535b" stop-opacity=".45"/><stop offset="1" stop-color="#22535b" stop-opacity=".95"/></radialGradient><circle cx="50" cy="50" fill="url(#a)" r="50"/><path d="m32.42372 38.254239-4-7-3-1-4-6 3-3h6l2-4h2l3 3 3-1v2l6-1 3 3 1-1 1 1-2 2-3-1 2 2-2 2 1 1 1-3 5-1 1 1-3 1 3 1 5-3 3 7 2-2 1 3h6l2 2-2 2 1-1 2 2-1 1 3 1-3 1 6 2-2 2-7 1h2l-1 7-2 2 2 2-1 3h2l-1 7h2l-2 4 2 4h-9v2.000004l3 3-2 2h-6l-2-2-5-1-2 2 1 3h-2v-2l-4-2v2l-3 1-3-10.000004v-7l-7-12v-5l3-3-2-2v-5zm39-5 1 1z" style="stroke:#fff;stroke-opacity:.8;stroke-width:2;stroke-linecap:round;stroke-linejoin:round;fill:#22535b;fill-opacity:.8;fill-rule:evenodd"/></svg>