<svg enable-background="new 0 0 32 32" viewBox="0 0 32 32" xmlns="http://www.w3.org/2000/svg"><path d="m10 32c-.184 0-.37-.051-.535-.155-.407-.258-.572-.769-.394-1.216l4.906-12.266h-6.704c-.334 0-.646-.167-.832-.445s-.22-.631-.091-.939l6.818-16.363c.155-.373.519-.616.923-.616h10.909c.363 0 .698.197.875.515.176.318.166.707-.027 1.015l-5.861 9.379h7.741c.397 0 .758.236.917.6.158.365.087.789-.185 1.081l-17.727 19.091c-.195.21-.463.319-.733.319zm-1.227-15.637h6.682c.332 0 .642.165.828.439s.224.624.101.932l-3.458 8.646 12.51-13.472h-7.253c-.363 0-.698-.197-.875-.515-.176-.318-.166-.707.027-1.015l5.86-9.378h-8.438z" fill="#333359" fill-opacity=".840764"/><path d="m13.233898 25.863115c0-.05416.732204-1.929847 1.627119-4.1682.894915-2.238352 1.627119-4.18634 1.627119-4.328861 0-1.006119-.346587-1.094868-4.275753-1.094868-1.992065 0-3.3218255-.0507-3.2948689-.12562.024859-.06909 1.3562969-3.272481 2.9587509-7.1186441l2.913554-6.9930236h4.162464 4.162464l-2.974323 4.7628064c-1.761437 2.820603-2.974322 4.8977233-2.974322 5.0936593 0 .423139.198073.791899.504707.939631.132581.06387 1.884034.147325 3.892119.185444l3.651063.06931-5.531603 5.966101c-6.210729 6.698573-6.44849 6.949746-6.44849 6.812268z" fill="#f9ea31"/></svg>